<svg width="42" height="25" viewBox="0 0 42 25" fill="none" xmlns="http://www.w3.org/2000/svg">

<g id="Logo">

<g id="_Group Row Component">

<g id="Logo/&#236;&#138;&#164;&#236;&#186;&#148;">

<g id="Mode=light">
<g id="&#236;&#138;&#164;&#236;&#186;&#148;">
<path id="Vector" d="M39.4283 2.27246V17.5867H36.3466V10.6842H34.8833V17.0319H31.8681V2.62757H34.8833V8.08745H36.3466V2.27246H39.4283ZM39.9604 19.7174V22.3142H25.35V15.8112H28.5869V19.7174H39.9604ZM30.8483 3.95925C30.8593 9.39693 28.8751 13.1478 23.1551 15.6336L21.6475 13.3254C23.7315 12.4487 25.1837 11.4388 26.1481 10.2403L22.3347 10.662L21.98 8.08745L27.3896 7.84331C27.5005 7.42161 27.5892 6.97772 27.6557 6.51163H22.7782V3.95925H30.8483Z" fill="#285066"/>
<path id="Vector_2" d="M13.2006 4.82497C13.1895 7.64369 15.3512 10.8397 20.2952 11.6609L18.8985 14.3687C15.2403 13.6584 12.7461 11.7497 11.4491 9.28609C10.1189 11.7497 7.62471 13.6806 3.99982 14.3687L2.62524 11.6609C7.52494 10.8397 9.70875 7.56601 9.71983 4.82497V3.38232H13.2006V4.82497ZM20.8495 17.5869V20.2502H2.27051V17.5869H20.8495Z" fill="#285066"/>
</g>
</g>
</g>
</g>
</g>
</svg>
